<svg xmlns="http://www.w3.org/2000/svg" viewBox="0 0 512 512">
  <defs><linearGradient id="g" x1="0" y1="0" x2="1" y2="1"><stop stop-color="#0f766e"/><stop offset="1" stop-color="#134e4a"/></linearGradient></defs>
  <rect width="512" height="512" rx="116" fill="url(#g)"/>
  <circle cx="256" cy="256" r="177" fill="#fff" opacity=".08"/>
  <path d="M332 104c-69 21-116 85-108 155 8 72 73 125 145 119-34 35-82 55-134 49-94-11-161-96-150-190 11-94 96-161 190-150 20 2 39 8 57 17z" fill="#f5e7c1"/>
  <path d="M328 177l13 27 30 4-22 21 5 30-26-14-27 14 5-30-22-21 31-4z" fill="#d4af5a"/>
</svg>
